<?xml version="1.0" encoding="UTF-8" standalone="no"?>
<!-- Created with Inkscape (http://www.inkscape.org/) -->

<svg
   width="217mm"
   height="256mm"
   viewBox="0 0 217 256"
   version="1.1"
   id="svg1"
   xml:space="preserve"
   inkscape:version="1.3.2 (091e20e, 2023-11-25, custom)"
   sodipodi:docname="inklogo.svg"
   xmlns:inkscape="http://www.inkscape.org/namespaces/inkscape"
   xmlns:sodipodi="http://sodipodi.sourceforge.net/DTD/sodipodi-0.dtd"
   xmlns:xlink="http://www.w3.org/1999/xlink"
   xmlns="http://www.w3.org/2000/svg"
   xmlns:svg="http://www.w3.org/2000/svg"><sodipodi:namedview
     id="namedview1"
     pagecolor="#ffffff"
     bordercolor="#000000"
     borderopacity="0.25"
     inkscape:showpageshadow="2"
     inkscape:pageopacity="0.0"
     inkscape:pagecheckerboard="0"
     inkscape:deskcolor="#d1d1d1"
     inkscape:document-units="mm"
     showgrid="false"
     inkscape:zoom="1"
     inkscape:cx="574"
     inkscape:cy="607.5"
     inkscape:window-width="1920"
     inkscape:window-height="1009"
     inkscape:window-x="-8"
     inkscape:window-y="-8"
     inkscape:window-maximized="1"
     inkscape:current-layer="layer1" /><defs
     id="defs1"><linearGradient
       id="linearGradient18"
       inkscape:collect="always"><stop
         style="stop-color:#550088;stop-opacity:1;"
         offset="0"
         id="stop19" /><stop
         style="stop-color:#060a74;stop-opacity:1;"
         offset="1"
         id="stop18" /></linearGradient><linearGradient
       inkscape:collect="always"
       xlink:href="#linearGradient18"
       id="linearGradient19"
       x1="41.496902"
       y1="262.55481"
       x2="115.27976"
       y2="46.390213"
       gradientUnits="userSpaceOnUse"
       spreadMethod="pad" /><linearGradient
       inkscape:collect="always"
       xlink:href="#linearGradient18"
       id="linearGradient21"
       x1="173.49446"
       y1="226.71053"
       x2="176.92439"
       y2="86.216766"
       gradientUnits="userSpaceOnUse" /><linearGradient
       inkscape:collect="always"
       xlink:href="#linearGradient18"
       id="linearGradient23"
       x1="111.62163"
       y1="255.78642"
       x2="173.63101"
       y2="152.06975"
       gradientUnits="userSpaceOnUse" /><linearGradient
       inkscape:collect="always"
       xlink:href="#linearGradient18"
       id="linearGradient25"
       x1="73.333572"
       y1="260.90933"
       x2="139.48828"
       y2="163.80727"
       gradientUnits="userSpaceOnUse" /><linearGradient
       inkscape:collect="always"
       xlink:href="#linearGradient18"
       id="linearGradient57"
       x1="90.677338"
       y1="252.04747"
       x2="141.99263"
       y2="191.45789"
       gradientUnits="userSpaceOnUse" /></defs><g
     inkscape:label="Camada 1"
     inkscape:groupmode="layer"
     id="layer1"><g
       id="g57"
       transform="matrix(1.0842733,0,0,1.0842733,-5.1632391,-33.777561)"><path
         d="M 129.93542,64.024514 C 99.745383,42.491876 47.205252,42.983859 13.383619,65.791434 31.214778,47.93417 57.556652,36.479459 103.59937,39.267457 c 21.93558,-7.81218 45.55683,-7.992167 69.56188,2.039899 L 152.10119,52.02374 c -21.14836,-8.740373 -36.60124,-10.598274 -47.53331,-6.993279 12.05736,4.437196 20.13585,10.96689 25.36754,18.994053 z"
         style="fill:#000080;stroke:#1b1918;stroke-width:0.199989;stroke-linecap:butt;stroke-linejoin:miter;stroke-dasharray:none;stroke-opacity:1"
         id="path1" /><path
         d="m 39.292741,61.190232 a 4.1010349,4.1671807 0 0 1 4.101035,4.16718 4.1010349,4.1671807 0 1 1 -4.101035,-4.16718 z"
         style="fill:#000080;fill-opacity:1;stroke:#1b1918;stroke-width:0.199989;stroke-linecap:butt;stroke-linejoin:miter;stroke-dasharray:none"
         id="path2" /><path
         d="M 148.1092,105.92517 C 135.31471,76.06921 63.803631,85.15668 49.920472,76.834595 c 19.948069,3.593107 78.030758,-7.86746 100.354638,18.718076 -0.5038,4.681709 -1.22813,8.126399 -2.16591,10.372499 z"
         style="fill:#000080;fill-opacity:1;stroke:#1b1918;stroke-width:0.199989;stroke-linecap:butt;stroke-linejoin:miter;stroke-dasharray:none"
         id="path3" /><path
         d="M 122.61544,129.65201 C 129.34882,89.965386 24.446007,113.94753 9.7867384,75.635611 46.419687,102.01548 134.60824,80.188589 136.59811,122.30585 c -6.77237,4.07708 -4.51389,3.12158 -13.98267,7.34616 z"
         style="fill:#000080;fill-opacity:1;stroke:#1b1918;stroke-width:0.199989;stroke-linecap:butt;stroke-linejoin:miter;stroke-dasharray:none;stroke-opacity:1"
         id="path4" /><path
         d="m 172.64587,83.823782 c -8.453,-26.086639 -36.18636,-37.334729 -59.0585,-38.03612 49.01801,21.090643 53.36179,71.606958 7.23507,87.171668 -16.91376,5.57977 -101.139419,-4.56501 -112.3478917,56.56447 -4.9481235,37.13947 29.9315227,69.80272 33.7563327,73.74871 -0.396592,-40.27484 7.854373,-68.3303 48.434722,-83.35536 21.322247,-11.0517 98.629947,-21.71396 81.980267,-96.093368 z"
         style="opacity:1;mix-blend-mode:darken;fill:url(#linearGradient19);fill-rule:nonzero;stroke:#1b1918;stroke-width:0.199989;stroke-linecap:butt;stroke-linejoin:miter;stroke-dasharray:none"
         id="path5" /><path
         d="m 157.51159,150.28669 c 17.91607,12.72626 22.05708,36.69863 15.27077,76.48107 27.71326,-31.53154 46.32974,-104.22943 3.93379,-142.003474 4.401,29.166664 -3.1671,50.216424 -19.20456,65.522404 z"
         style="fill:url(#linearGradient21);stroke:#1b1918;stroke-width:0.199989;stroke-linecap:butt;stroke-linejoin:miter;stroke-dasharray:none"
         id="path6" /><path
         d="m 141.86102,161.45516 c 5.068,-3.178 9.47517,-6.18599 13.04909,-8.97878 20.28165,5.32168 25.36785,63.4238 9.65427,74.81328 -19.21609,22.31217 -30.00006,25.38497 -53.43371,28.06417 27.10715,-24.08477 40.57304,-55.02654 30.73035,-93.89867 z"
         style="fill:url(#linearGradient23);stroke:#1b1918;stroke-width:0.199989;stroke-linecap:butt;stroke-linejoin:miter;stroke-dasharray:none"
         id="path7" /><path
         d="m 93.572699,223.02956 c 14.186971,-19.33177 30.575941,-30.27555 49.109621,-33.05085 -0.4627,13.49489 -4.805,26.34466 -11.94218,38.72975 -10.83389,10.34209 -24.63768,18.44637 -41.001423,23.99495 z"
         style="fill:url(#linearGradient57);fill-opacity:1;stroke:#1b1918;stroke-width:0.199989;stroke-linecap:butt;stroke-linejoin:miter;stroke-dasharray:none"
         id="path8" /><path
         d="m 142.80851,187.20221 c -38.37324,8.63331 -58.963395,36.18835 -69.539797,74.39881 -4.358668,-34.61196 -1.154181,-63.79821 20.129891,-80.01499 6.721076,-3.3983 30.756246,-10.65979 45.907816,-18.61555 2.4053,8.67726 3.69749,16.81505 3.50209,24.23173 z"
         style="fill:url(#linearGradient25);stroke:#1b1918;stroke-width:0.199989;stroke-linecap:butt;stroke-linejoin:miter;stroke-dasharray:none"
         id="path9" /></g></g></svg>
