<?xml version="1.0" encoding="UTF-8" standalone="no"?>
<svg
   enable-background="new 0 0 32 32"
   viewBox="0 0 17.136612 17.311476"
   id="rust"
   version="1.1"
   sodipodi:docname="logo_rust.svg"
   width="17.136612"
   height="17.311476"
   inkscape:version="1.3.2 (091e20e, 2023-11-25, custom)"
   xmlns:inkscape="http://www.inkscape.org/namespaces/inkscape"
   xmlns:sodipodi="http://sodipodi.sourceforge.net/DTD/sodipodi-0.dtd"
   xmlns="http://www.w3.org/2000/svg"
   xmlns:svg="http://www.w3.org/2000/svg">
  <defs
     id="defs3" />
  <sodipodi:namedview
     id="namedview3"
     pagecolor="#ffffff"
     bordercolor="#000000"
     borderopacity="0.25"
     inkscape:showpageshadow="2"
     inkscape:pageopacity="0.0"
     inkscape:pagecheckerboard="0"
     inkscape:deskcolor="#d1d1d1"
     inkscape:zoom="22.875"
     inkscape:cx="16"
     inkscape:cy="15.978142"
     inkscape:window-width="1920"
     inkscape:window-height="1009"
     inkscape:window-x="-8"
     inkscape:window-y="-8"
     inkscape:window-maximized="1"
     inkscape:current-layer="rust">
    <inkscape:page
       x="0"
       y="0"
       width="17.136612"
       height="17.311476"
       id="page3"
       margin="0 0 0 0"
       bleed="0" />
  </sodipodi:namedview>
  <g
     id="g3"
     transform="translate(-7.3879781,-7.3442623)">
    <path
       fill="#fc573b"
       d="m 8.11,16.194 v 0 l 0.672,0.417 c 0.005,0.066 0.012,0.131 0.019,0.196 l -0.577,0.539 c -0.045,0.043 -0.074,0.103 -0.074,0.169 0,0.099 0.062,0.183 0.149,0.216 l 0.001,10e-4 0.738,0.276 c 0.018,0.064 0.038,0.128 0.058,0.19 l -0.46,0.639 c -0.028,0.038 -0.044,0.084 -0.044,0.136 0,0.115 0.084,0.21 0.194,0.228 h 0.001 l 0.778,0.126 c 0.03,0.059 0.061,0.117 0.094,0.175 L 9.332,20.22 c -0.014,0.028 -0.021,0.061 -0.021,0.096 0,0.128 0.103,0.231 0.231,0.231 0.003,0 0.006,0 0.01,0 l 0.788,-0.028 c 0.041,0.051 0.082,0.102 0.125,0.152 l -0.181,0.77 c -0.004,0.016 -0.006,0.034 -0.006,0.053 0,0.128 0.103,0.231 0.231,0.231 0.019,0 0.037,-0.002 0.055,-0.007 h -10e-4 l 0.769,-0.181 c 0.05,0.043 0.101,0.084 0.152,0.124 l -0.028,0.79 c 0,0.003 0,0.007 0,0.01 0,0.127 0.103,0.23 0.229,0.23 0.035,0 0.069,-0.008 0.099,-0.022 L 11.783,22.67 12.5,22.343 c 0.058,0.032 0.116,0.063 0.175,0.094 l 0.127,0.778 c 0.019,0.111 0.114,0.194 0.229,0.194 0.05,0 0.096,-0.016 0.135,-0.043 l -0.001,0.001 0.639,-0.461 c 0.063,0.02 0.126,0.04 0.19,0.058 l 0.276,0.738 c 0.033,0.089 0.117,0.151 0.216,0.151 0.067,0 0.127,-0.028 0.169,-0.074 l 0.539,-0.577 c 0.065,0.007 0.13,0.014 0.196,0.02 l 0.416,0.672 c 0.04,0.064 0.112,0.106 0.195,0.106 0.082,0 0.155,-0.043 0.196,-0.108 l 0.001,-0.001 0.416,-0.672 c 0.065,-0.006 0.131,-0.012 0.196,-0.02 l 0.538,0.577 c 0.043,0.045 0.102,0.072 0.169,0.072 0.099,0 0.183,-0.061 0.217,-0.148 l 10e-4,-10e-4 0.276,-0.738 c 0.064,-0.018 0.128,-0.038 0.19,-0.058 l 0.639,0.461 c 0.038,0.028 0.084,0.044 0.136,0.044 0.115,0 0.21,-0.084 0.227,-0.195 v -0.001 l 0.127,-0.778 c 0.059,-0.03 0.117,-0.062 0.175,-0.094 l 0.717,0.327 c 0.028,0.013 0.061,0.02 0.095,0.02 0.128,0 0.232,-0.104 0.232,-0.232 0,-0.002 0,-0.004 0,-0.007 l -0.028,-0.79 c 0.051,-0.041 0.102,-0.082 0.151,-0.124 l 0.769,0.181 c 0.015,0.004 0.034,0.006 0.053,0.006 0.128,0 0.232,-0.104 0.232,-0.232 0,-0.018 -0.002,-0.036 -0.006,-0.053 v 0.001 l -0.181,-0.77 c 0.042,-0.05 0.084,-0.101 0.124,-0.152 l 0.79,0.028 c 0.003,0 0.007,0 0.011,0 0.127,0 0.23,-0.103 0.23,-0.23 0,-0.035 -0.008,-0.069 -0.022,-0.099 l 10e-4,0.001 -0.331,-0.715 c 0.032,-0.058 0.063,-0.116 0.094,-0.175 l 0.777,-0.126 c 0.111,-0.02 0.193,-0.115 0.193,-0.229 0,-0.051 -0.016,-0.097 -0.043,-0.135 l 0.001,10e-4 -0.46,-0.639 0.058,-0.19 0.738,-0.276 c 0.088,-0.034 0.151,-0.117 0.151,-0.217 0,-0.067 -0.028,-0.127 -0.074,-0.169 L 23.2,16.806 c 0.007,-0.065 0.014,-0.13 0.019,-0.196 L 23.89,16.194 C 23.957,16.153 24,16.08 24,15.997 24,15.914 23.956,15.842 23.89,15.801 L 23.889,15.8 23.888,15.802 23.216,15.386 C 23.209,15.303 23.204,15.245 23.198,15.19 l 0.576,-0.537 c 0.044,-0.043 0.072,-0.102 0.072,-0.169 0,-0.099 -0.061,-0.183 -0.148,-0.217 L 23.697,14.266 22.959,13.99 c -0.023,-0.084 -0.04,-0.14 -0.057,-0.192 l 0.459,-0.638 c 0.027,-0.038 0.044,-0.084 0.044,-0.135 0,-0.115 -0.084,-0.21 -0.193,-0.228 H 23.211 L 22.433,12.671 C 22.394,12.595 22.367,12.543 22.34,12.495 l 0.326,-0.717 c 0.034,-0.073 0.026,-0.158 -0.018,-0.224 -0.045,-0.066 -0.12,-0.105 -0.201,-0.103 l -0.79,0.028 c -0.047,-0.06 -0.088,-0.109 -0.13,-0.157 l 0.005,0.005 0.182,-0.769 c 0.004,-0.015 0.006,-0.034 0.006,-0.053 0,-0.128 -0.104,-0.232 -0.232,-0.232 -0.019,0 -0.037,0.002 -0.054,0.006 h 10e-4 l -0.769,0.182 C 20.631,10.431 20.582,10.39 20.532,10.35 l -0.018,-0.013 0.028,-0.79 c 0,-0.003 0,-0.007 0,-0.011 0,-0.127 -0.103,-0.23 -0.229,-0.23 -0.035,0 -0.069,0.008 -0.099,0.022 L 20.215,9.327 19.498,9.654 C 19.44,9.622 19.382,9.591 19.323,9.56 L 19.196,8.782 c -0.02,-0.111 -0.115,-0.193 -0.229,-0.193 -0.051,0 -0.097,0.016 -0.135,0.043 l 10e-4,-10e-4 -0.64,0.461 C 18.17,9.083 18.107,9.063 18.043,9.045 L 18.003,9.035 17.73,8.299 C 17.696,8.211 17.611,8.15 17.513,8.15 c -0.066,0 -0.126,0.028 -0.168,0.072 L 16.807,8.8 C 16.768,8.795 16.702,8.788 16.633,8.782 L 16.611,8.781 16.195,8.109 C 16.155,8.043 16.082,8 15.999,8 15.917,8 15.844,8.043 15.803,8.109 L 15.802,8.11 15.386,8.782 C 15.321,8.787 15.255,8.794 15.19,8.801 L 14.651,8.223 C 14.608,8.178 14.549,8.149 14.482,8.149 c -0.099,0 -0.183,0.062 -0.216,0.149 l -10e-4,10e-4 -0.276,0.738 c -0.064,0.018 -0.127,0.038 -0.19,0.057 L 13.16,8.633 C 13.123,8.606 13.076,8.59 13.026,8.59 c -0.115,0 -0.21,0.083 -0.229,0.192 V 8.783 L 12.67,9.561 C 12.594,9.6 12.542,9.627 12.494,9.654 L 11.78,9.329 C 11.752,9.315 11.719,9.308 11.684,9.308 c -0.128,0 -0.231,0.103 -0.231,0.231 0,0.003 0,0.006 0,0.009 l 0.028,0.79 c -0.051,0.04 -0.102,0.082 -0.152,0.125 L 10.56,10.281 c -0.015,-0.004 -0.034,-0.006 -0.053,-0.006 -0.128,0 -0.232,0.104 -0.232,0.232 0,0.019 0.002,0.037 0.006,0.054 V 10.56 l 0.181,0.769 c -0.042,0.05 -0.084,0.101 -0.124,0.151 l -0.79,-0.028 c -0.003,0 -0.005,0 -0.009,0 -0.128,0 -0.231,0.103 -0.231,0.231 0,0.035 0.007,0.068 0.022,0.097 v -10e-4 l 0.327,0.718 C 9.641,12.523 9.61,12.581 9.579,12.638 l -0.016,0.034 -0.777,0.126 c -0.111,0.02 -0.193,0.115 -0.193,0.229 0,0.051 0.016,0.097 0.043,0.135 L 8.635,13.161 9.095,13.8 c -0.02,0.063 -0.039,0.126 -0.058,0.19 L 8.299,14.266 C 8.211,14.3 8.15,14.385 8.15,14.483 c 0,0.066 0.028,0.126 0.072,0.168 l 0.577,0.538 C 8.794,15.228 8.787,15.294 8.781,15.363 L 8.78,15.385 8.11,15.802 C 8.043,15.843 8,15.916 8,15.999 c 0,0.083 0.043,0.155 0.11,0.195 z m 4.45,5.158 -0.003,0.001 c -0.03,0.007 -0.065,0.011 -0.1,0.011 -0.262,0 -0.476,-0.213 -0.476,-0.476 0,-0.227 0.159,-0.418 0.373,-0.465 l 0.003,-10e-4 c 0.03,-0.007 0.065,-0.011 0.1,-0.011 0.263,0 0.476,0.213 0.476,0.476 0,0.227 -0.159,0.418 -0.373,0.465 z m 6.832,0.023 v 0 l 0.002,0.001 c -10e-4,-0.001 -10e-4,-0.001 -0.002,-0.001 z m 0.101,0.011 c -0.034,0 -0.069,-0.004 -0.101,-0.011 -0.215,-0.048 -0.374,-0.238 -0.374,-0.465 0,-0.263 0.213,-0.476 0.476,-0.476 0.034,0 0.068,0.004 0.1,0.011 0.216,0.048 0.375,0.238 0.375,0.465 -0.001,0.262 -0.214,0.476 -0.476,0.476 z m 1.219,-1.974 c -0.173,0.235 -0.35,0.442 -0.541,0.635 l -1.005,-0.216 0.001,0.001 c -0.028,-0.006 -0.059,-0.009 -0.091,-0.009 -0.207,0 -0.381,0.146 -0.423,0.34 l -10e-4,0.003 -0.238,1.113 c -0.736,0.334 -1.552,0.52 -2.413,0.52 -0.003,0 -0.005,0 -0.009,0 -0.877,0 -1.709,-0.196 -2.455,-0.544 L 13.299,20.143 C 13.256,19.946 13.083,19.8 12.877,19.8 c -0.032,0 -0.064,0.003 -0.095,0.01 l 0.003,-10e-4 -0.982,0.211 c -0.177,-0.182 -0.344,-0.378 -0.497,-0.583 l -0.011,-0.015 h 4.778 c 0.054,0 0.09,-0.01 0.09,-0.059 V 17.67 c 0,-0.049 -0.036,-0.059 -0.09,-0.059 h -1.398 v -1.072 h 1.512 c 0.138,0 0.738,0.039 0.929,0.806 0.06,0.236 0.192,1.003 0.282,1.249 0.09,0.276 0.456,0.826 0.846,0.826 h 2.381 c 0.031,-0.001 0.061,-0.003 0.09,-0.01 z m -6.035,-4.455 v -1.101 h 1.973 c 0.102,0 0.719,0.118 0.719,0.58 0,0.384 -0.474,0.521 -0.863,0.521 z m 6.53,-0.936 v 0 c 0.106,-0.241 0.387,-0.349 0.627,-0.242 0.169,0.076 0.283,0.242 0.283,0.436 0,0.263 -0.213,0.476 -0.476,0.476 -0.263,0 -0.476,-0.213 -0.476,-0.476 0,-0.07 0.015,-0.135 0.042,-0.194 z M 15.648,9.544 v 10e-4 c 0.085,-0.081 0.2,-0.132 0.328,-0.132 0.263,0 0.475,0.213 0.475,0.475 0,0.135 -0.057,0.257 -0.147,0.344 -0.083,0.072 -0.192,0.115 -0.311,0.115 -0.263,0 -0.476,-0.213 -0.476,-0.476 0,-0.126 0.05,-0.241 0.131,-0.327 z m -0.77,0.66 0.037,-0.006 0.732,0.768 c 0.079,0.083 0.19,0.134 0.313,0.134 0.116,0 0.221,-0.046 0.299,-0.12 l 0.818,-0.783 c 1.725,0.332 3.155,1.384 3.988,2.824 l 0.015,0.028 -0.56,1.266 c -0.024,0.052 -0.037,0.112 -0.037,0.176 0,0.176 0.105,0.327 0.254,0.396 l 0.003,10e-4 1.079,0.479 c 0.019,0.192 0.028,0.385 0.028,0.581 h 10e-4 c 0,0.146 -0.005,0.291 -0.016,0.434 h -0.6 c -0.06,0 -0.084,0.039 -0.084,0.099 v 0.275 c 0,0.649 -0.366,0.79 -0.686,0.826 -0.305,0.034 -0.643,-0.128 -0.685,-0.315 -0.18,-1.013 -0.48,-1.23 -0.954,-1.603 0.588,-0.373 1.199,-0.924 1.199,-1.662 0,-0.796 -0.546,-1.298 -0.918,-1.544 -0.522,-0.344 -1.099,-0.413 -1.255,-0.413 h -6.204 c 0.837,-0.934 1.961,-1.594 3.233,-1.841 z m -3.448,4.085 10e-4,0.003 -0.211,-0.477 h 0.829 v 3.737 h -1.672 c -0.142,-0.479 -0.223,-1.031 -0.223,-1.601 0,-0.214 0.013,-0.424 0.035,-0.632 l 1.021,-0.454 c 0.153,-0.069 0.258,-0.221 0.258,-0.396 0,-0.065 -0.014,-0.125 -0.038,-0.18 z m -1.115,-0.561 c 0.188,0 0.35,0.109 0.427,0.267 l 10e-4,0.003 v 0.001 c 0.03,0.061 0.047,0.132 0.047,0.207 0,0.263 -0.213,0.476 -0.476,0.476 -0.198,0 -0.368,-0.121 -0.439,-0.294 L 9.874,14.385 C 9.852,14.332 9.839,14.27 9.839,14.205 c 0,-0.264 0.214,-0.477 0.476,-0.477 z"
       id="path3" />
  </g>
</svg>
